# xmcd CD database file
#
# Track frame offsets:
#	150
#	22015
#	41122
#	65789
#	91963
#	116340
#	140989
#	164930
#	187363
#	213602
#	238622
#	254596
#	284959
#	302499
#
# Disc length: 4392 seconds
#
# Revision: 0
# Processed by: cddbd v1.5.2PL0 Copyright (c) Steve Scherf et al.
# Submitted via: CDex 1.70beta2
#
DISCID=ef11260e
DTITLE=NANDO CORDEL - DEDICADO AS FLORES
DYEAR=1900
DGENRE=New Age
TTITLE0=O SORRISO DAS ORQUIDEAS
TTITLE1=O VOO DAS ROSAS
TTITLE2=AS CORES DAS ONZE HORAS
TTITLE3=O ENCANTO DO GIRASSOL
TTITLE4=O AMOR DO BOUNGANVILLE
TTITLE5=FLOR DO CAMPO
TTITLE6=AROMA DE JASMIM
TTITLE7=FLOR DE MARACUJA
TTITLE8=SONHO DE VIOLETAS
TTITLE9=O LIRIO DA AZALEIA
TTITLE10=A DANCA DO VENTO
TTITLE11=AO SABOR DAS ONDAS
TTITLE12=PINGO DE SOL
TTITLE13=ARAGEM DE PRIMAVERA
EXTD=
EXTT0=
EXTT1=
EXTT2=
EXTT3=
EXTT4=
EXTT5=
EXTT6=
EXTT7=
EXTT8=
EXTT9=
EXTT10=
EXTT11=
EXTT12=
EXTT13=
PLAYORDER=
